{
    "asset" : {
        "generator" : "Khronos glTF Blender I/O v1.8.19",
        "version" : "2.0"
    },
    "scene" : 0,
    "scenes" : [
        {
            "name" : "Scene",
            "nodes" : [
                0,
                1,
                2,
                3
            ]
        }
    ],
    "nodes" : [
        {
            "mesh" : 0,
            "name" : "Plane"
        },
        {
            "mesh" : 1,
            "name" : "Circle",
            "rotation" : [
                -0.36321473121643066,
                0.3527493178844452,
                0.6055513620376587,
                0.6139629483222961
            ],
            "scale" : [
                0.19138601422309875,
                0.19138601422309875,
                0.19138601422309875
            ],
            "translation" : [
                1.0060505867004395,
                0.21892569959163666,
                -0.0032592443749308586
            ]
        },
        {
            "mesh" : 1,
            "name" : "Circle.004",
            "rotation" : [
                -0.36321473121643066,
                0.3527493178844452,
                0.6055513620376587,
                0.6139629483222961
            ],
            "scale" : [
                0.13373678922653198,
                0.1337367743253708,
                0.13373678922653198
            ],
            "translation" : [
                1.0403834581375122,
                0.16674122214317322,
                -0.5986334085464478
            ]
        },
        {
            "mesh" : 1,
            "name" : "Circle.005",
            "rotation" : [
                -0.36321473121643066,
                0.3527493178844452,
                0.6055513620376587,
                0.6139629483222961
            ],
            "scale" : [
                0.13373678922653198,
                0.1337367743253708,
                0.13373678922653198
            ],
            "translation" : [
                1.0317087173461914,
                0.1693834811449051,
                0.5799765586853027
            ]
        }
    ],
    "materials" : [
        {
            "doubleSided" : true,
            "name" : "Material.001",
            "pbrMetallicRoughness" : {
                "baseColorFactor" : [
                    0.9999988079071045,
                    0.9999989867210388,
                    1,
                    1
                ],
                "metallicFactor" : 0,
                "roughnessFactor" : 0.4000000059604645
            }
        },
        {
            "doubleSided" : true,
            "name" : "Material.003",
            "pbrMetallicRoughness" : {
                "baseColorFactor" : [
                    0.0020637218840420246,
                    0.0011411868035793304,
                    0,
                    1
                ],
                "metallicFactor" : 0,
                "roughnessFactor" : 0.5
            }
        },
        {
            "doubleSided" : true,
            "name" : "Material.004",
            "pbrMetallicRoughness" : {
                "baseColorFactor" : [
                    0.7991031408309937,
                    0.15592631697654724,
                    0.011612307280302048,
                    1
                ],
                "metallicFactor" : 0,
                "roughnessFactor" : 0.5
            }
        },
        {
            "doubleSided" : true,
            "name" : "Material.006",
            "pbrMetallicRoughness" : {
                "baseColorFactor" : [
                    0.7991031408309937,
                    0.15592631697654724,
                    0.011612307280302048,
                    1
                ],
                "metallicFactor" : 0,
                "roughnessFactor" : 0.5
            }
        },
        {
            "doubleSided" : true,
            "name" : "Material.007",
            "pbrMetallicRoughness" : {
                "baseColorFactor" : [
                    0.4019722640514374,
                    0.4019722640514374,
                    0.4019722640514374,
                    1
                ],
                "metallicFactor" : 0,
                "roughnessFactor" : 0.5
            }
        },
        {
            "doubleSided" : true,
            "name" : "Material.019",
            "pbrMetallicRoughness" : {
                "baseColorFactor" : [
                    0.15081095695495605,
                    0.14435088634490967,
                    0.15743662416934967,
                    1
                ],
                "metallicFactor" : 0,
                "roughnessFactor" : 0.5
            }
        }
    ],
    "meshes" : [
        {
            "name" : "Plane",
            "primitives" : [
                {
                    "attributes" : {
                        "POSITION" : 0,
                        "NORMAL" : 1,
                        "TEXCOORD_0" : 2
                    },
                    "indices" : 3,
                    "material" : 0
                },
                {
                    "attributes" : {
                        "POSITION" : 4,
                        "NORMAL" : 5,
                        "TEXCOORD_0" : 6
                    },
                    "indices" : 7,
                    "material" : 1
                },
                {
                    "attributes" : {
                        "POSITION" : 8,
                        "NORMAL" : 9,
                        "TEXCOORD_0" : 10
                    },
                    "indices" : 11,
                    "material" : 2
                },
                {
                    "attributes" : {
                        "POSITION" : 12,
                        "NORMAL" : 13,
                        "TEXCOORD_0" : 14
                    },
                    "indices" : 15,
                    "material" : 3
                },
                {
                    "attributes" : {
                        "POSITION" : 16,
                        "NORMAL" : 17,
                        "TEXCOORD_0" : 18
                    },
                    "indices" : 19,
                    "material" : 4
                },
                {
                    "attributes" : {
                        "POSITION" : 20,
                        "NORMAL" : 21,
                        "TEXCOORD_0" : 22
                    },
                    "indices" : 23
                }
            ]
        },
        {
            "name" : "Circle",
            "primitives" : [
                {
                    "attributes" : {
                        "POSITION" : 24,
                        "NORMAL" : 25,
                        "TEXCOORD_0" : 26
                    },
                    "indices" : 27,
                    "material" : 5
                }
            ]
        }
    ],
    "accessors" : [
        {
            "bufferView" : 0,
            "componentType" : 5126,
            "count" : 451,
            "max" : [
                1,
                0.47419238090515137,
                1.5649073123931885
            ],
            "min" : [
                -1.2572484016418457,
                -0.051500897854566574,
                -1.57871675491333
            ],
            "type" : "VEC3"
        },
        {
            "bufferView" : 1,
            "componentType" : 5126,
            "count" : 451,
            "type" : "VEC3"
        },
        {
            "bufferView" : 2,
            "componentType" : 5126,
            "count" : 451,
            "type" : "VEC2"
        },
        {
            "bufferView" : 3,
            "componentType" : 5123,
            "count" : 744,
            "type" : "SCALAR"
        },
        {
            "bufferView" : 4,
            "componentType" : 5126,
            "count" : 4,
            "max" : [
                -0.7294307947158813,
                0.3364299237728119,
                0.321665495634079
            ],
            "min" : [
                -0.9100030660629272,
                0.2381170392036438,
                -0.28022459149360657
            ],
            "type" : "VEC3"
        },
        {
            "bufferView" : 5,
            "componentType" : 5126,
            "count" : 4,
            "type" : "VEC3"
        },
        {
            "bufferView" : 6,
            "componentType" : 5126,
            "count" : 4,
            "type" : "VEC2"
        },
        {
            "bufferView" : 7,
            "componentType" : 5123,
            "count" : 6,
            "type" : "SCALAR"
        },
        {
            "bufferView" : 8,
            "componentType" : 5126,
            "count" : 20,
            "max" : [
                0.8784677982330322,
                0.39248958230018616,
                -0.4164901077747345
            ],
            "min" : [
                0.11669492721557617,
                0.11093753576278687,
                -1.1235339641571045
            ],
            "type" : "VEC3"
        },
        {
            "bufferView" : 9,
            "componentType" : 5126,
            "count" : 20,
            "type" : "VEC3"
        },
        {
            "bufferView" : 10,
            "componentType" : 5126,
            "count" : 20,
            "type" : "VEC2"
        },
        {
            "bufferView" : 11,
            "componentType" : 5123,
            "count" : 30,
            "type" : "SCALAR"
        },
        {
            "bufferView" : 12,
            "componentType" : 5126,
            "count" : 20,
            "max" : [
                0.8941667675971985,
                0.4069473147392273,
                1.138116478919983
            ],
            "min" : [
                0.10099589824676514,
                0.09698230028152466,
                0.43764108419418335
            ],
            "type" : "VEC3"
        },
        {
            "bufferView" : 13,
            "componentType" : 5126,
            "count" : 20,
            "type" : "VEC3"
        },
        {
            "bufferView" : 14,
            "componentType" : 5126,
            "count" : 20,
            "type" : "VEC2"
        },
        {
            "bufferView" : 15,
            "componentType" : 5123,
            "count" : 30,
            "type" : "SCALAR"
        },
        {
            "bufferView" : 16,
            "componentType" : 5126,
            "count" : 110,
            "max" : [
                0.943587601184845,
                0.43615931272506714,
                1.2102705240249634
            ],
            "min" : [
                -1.1847445964813232,
                0.010787935927510262,
                -1.2150534391403198
            ],
            "type" : "VEC3"
        },
        {
            "bufferView" : 17,
            "componentType" : 5126,
            "count" : 110,
            "type" : "VEC3"
        },
        {
            "bufferView" : 18,
            "componentType" : 5126,
            "count" : 110,
            "type" : "VEC2"
        },
        {
            "bufferView" : 19,
            "componentType" : 5123,
            "count" : 162,
            "type" : "SCALAR"
        },
        {
            "bufferView" : 20,
            "componentType" : 5126,
            "count" : 4,
            "max" : [
                1,
                0.43615931272506714,
                0.3656003177165985
            ],
            "min" : [
                1,
                0,
                -0.32571712136268616
            ],
            "type" : "VEC3"
        },
        {
            "bufferView" : 21,
            "componentType" : 5126,
            "count" : 4,
            "type" : "VEC3"
        },
        {
            "bufferView" : 22,
            "componentType" : 5126,
            "count" : 4,
            "type" : "VEC2"
        },
        {
            "bufferView" : 23,
            "componentType" : 5123,
            "count" : 6,
            "type" : "SCALAR"
        },
        {
            "bufferView" : 24,
            "componentType" : 5126,
            "count" : 560,
            "max" : [
                1.2824201583862305,
                0.23709917068481445,
                1.2741785049438477
            ],
            "min" : [
                -1.2661056518554688,
                -2.011906623840332,
                -1.2722793817520142
            ],
            "type" : "VEC3"
        },
        {
            "bufferView" : 25,
            "componentType" : 5126,
            "count" : 560,
            "type" : "VEC3"
        },
        {
            "bufferView" : 26,
            "componentType" : 5126,
            "count" : 560,
            "type" : "VEC2"
        },
        {
            "bufferView" : 27,
            "componentType" : 5123,
            "count" : 948,
            "type" : "SCALAR"
        }
    ],
    "bufferViews" : [
        {
            "buffer" : 0,
            "byteLength" : 5412,
            "byteOffset" : 0
        },
        {
            "buffer" : 0,
            "byteLength" : 5412,
            "byteOffset" : 5412
        },
        {
            "buffer" : 0,
            "byteLength" : 3608,
            "byteOffset" : 10824
        },
        {
            "buffer" : 0,
            "byteLength" : 1488,
            "byteOffset" : 14432
        },
        {
            "buffer" : 0,
            "byteLength" : 48,
            "byteOffset" : 15920
        },
        {
            "buffer" : 0,
            "byteLength" : 48,
            "byteOffset" : 15968
        },
        {
            "buffer" : 0,
            "byteLength" : 32,
            "byteOffset" : 16016
        },
        {
            "buffer" : 0,
            "byteLength" : 12,
            "byteOffset" : 16048
        },
        {
            "buffer" : 0,
            "byteLength" : 240,
            "byteOffset" : 16060
        },
        {
            "buffer" : 0,
            "byteLength" : 240,
            "byteOffset" : 16300
        },
        {
            "buffer" : 0,
            "byteLength" : 160,
            "byteOffset" : 16540
        },
        {
            "buffer" : 0,
            "byteLength" : 60,
            "byteOffset" : 16700
        },
        {
            "buffer" : 0,
            "byteLength" : 240,
            "byteOffset" : 16760
        },
        {
            "buffer" : 0,
            "byteLength" : 240,
            "byteOffset" : 17000
        },
        {
            "buffer" : 0,
            "byteLength" : 160,
            "byteOffset" : 17240
        },
        {
            "buffer" : 0,
            "byteLength" : 60,
            "byteOffset" : 17400
        },
        {
            "buffer" : 0,
            "byteLength" : 1320,
            "byteOffset" : 17460
        },
        {
            "buffer" : 0,
            "byteLength" : 1320,
            "byteOffset" : 18780
        },
        {
            "buffer" : 0,
            "byteLength" : 880,
            "byteOffset" : 20100
        },
        {
            "buffer" : 0,
            "byteLength" : 324,
            "byteOffset" : 20980
        },
        {
            "buffer" : 0,
            "byteLength" : 48,
            "byteOffset" : 21304
        },
        {
            "buffer" : 0,
            "byteLength" : 48,
            "byteOffset" : 21352
        },
        {
            "buffer" : 0,
            "byteLength" : 32,
            "byteOffset" : 21400
        },
        {
            "buffer" : 0,
            "byteLength" : 12,
            "byteOffset" : 21432
        },
        {
            "buffer" : 0,
            "byteLength" : 6720,
            "byteOffset" : 21444
        },
        {
            "buffer" : 0,
            "byteLength" : 6720,
            "byteOffset" : 28164
        },
        {
            "buffer" : 0,
            "byteLength" : 4480,
            "byteOffset" : 34884
        },
        {
            "buffer" : 0,
            "byteLength" : 1896,
            "byteOffset" : 39364
        }
    ],
    "buffers" : [
        {
            "byteLength" : 41260,
            "uri" : "data:application/octet-stream;base64,"
        }
    ]
}
