<?xml version="1.0" encoding="UTF-8"?><svg id="Layer_1" xmlns="http://www.w3.org/2000/svg" viewBox="0 0 182.23 179.97"><defs><style>.cls-1{fill:#231f20;}</style></defs><path class="cls-1" d="M37.41,16.75l8.59-5.43,1.09,1.73-6.53,4.13,3.35,5.3,6.03-3.81,1.08,1.7-6.03,3.81,4.56,7.22-2.06,1.3s-10.08-15.95-10.08-15.95Z"/><path class="cls-1" d="M66.62,18.81c.53,1.3,1.02,2.43,1.5,3.38l-2.02,.82-.96-2-.05,.02c-.18,1.25-.97,3.12-3.2,4.02-1.97,.8-4.77,.68-6.57-3.73l-2.99-7.34,2.28-.93,2.83,6.95c.97,2.39,2.35,3.7,4.43,2.85,1.53-.62,2.16-2.12,2.16-3.3,0-.39-.1-.84-.27-1.25l-3.14-7.7,2.28-.93,3.72,9.13h0Z"/><path class="cls-1" d="M66.59,2.18l2.39-.59,4.79,19.29-2.39,.59s-4.79-19.29-4.79-19.29Z"/><path class="cls-1" d="M74.34,.5l2.43-.39,3.11,19.63-2.43,.39L74.34,.5Z"/><path class="cls-1" d="M88.88,15.91c1.06,.73,2.62,1.37,4.3,1.45,2.49,.12,4.01-1.12,4.1-3.02,.09-1.76-.87-2.82-3.36-3.93-3.02-1.25-4.84-2.93-4.71-5.59,.15-2.94,2.69-5,6.35-4.81,1.93,.1,3.31,.61,4.12,1.13l-.77,1.95c-.6-.37-1.83-.99-3.54-1.07-2.57-.13-3.63,1.36-3.69,2.65-.09,1.76,1.02,2.69,3.57,3.82,3.13,1.39,4.67,3.01,4.53,5.78-.15,2.91-2.43,5.32-6.87,5.09-1.82-.09-3.78-.72-4.75-1.44l.72-2.01Z"/><path class="cls-1" d="M108.33,3.44l-.77,3.82,3.46,.7-.37,1.84-3.46-.7-1.44,7.16c-.33,1.65-.05,2.67,1.29,2.94,.63,.13,1.11,.14,1.43,.12l-.25,1.83c-.51,.1-1.27,.09-2.21-.1-1.13-.23-1.96-.77-2.4-1.54-.54-.85-.55-2.08-.24-3.65l1.46-7.25-2.06-.41,.37-1.84,2.06,.41,.64-3.18,2.49-.16h0Z"/><path class="cls-1" d="M117.44,24.3l.4-1.67-.08-.03c-1.07,.74-2.77,1.14-4.58,.49-2.58-.93-3.24-3.23-2.57-5.07,1.11-3.08,4.46-3.78,9.38-1.97l.09-.26c.38-1.05,.78-3.05-1.83-4-1.19-.43-2.56-.51-3.66-.25l.03-1.72c1.3-.3,2.99-.2,4.6,.38,3.9,1.41,3.88,4.41,2.96,6.97l-1.72,4.77c-.4,1.11-.74,2.21-.89,3.13l-2.11-.76h-.02Zm2.01-6.64c-2.51-.97-5.54-1.56-6.44,.92-.54,1.5,.2,2.57,1.39,3,1.66,.6,3.09-.07,3.85-1.02,.17-.21,.31-.45,.4-.69l.8-2.21Z"/><path class="cls-1" d="M130.88,30.72c-.73-.03-2.19-.34-3.77-1.24-3.55-2.02-4.5-5.74-2.45-9.35,2.06-3.63,6.04-4.84,9.88-2.66,1.27,.72,2.21,1.67,2.62,2.3l-1.43,1.38c-.35-.58-1-1.31-2.16-1.97-2.7-1.54-5.3-.37-6.69,2.09-1.55,2.73-.75,5.4,1.58,6.73,1.22,.69,2.2,.83,2.96,.91l-.55,1.81h0Z"/><path class="cls-1" d="M138.89,28.28l.04,.04c.56-.16,1.3-.31,1.91-.43l6.03-1.12,2.3,1.87-7.58,1.02-.41,9.95-2.32-1.89,.47-7.99-1.86,.29-3.22,3.95-1.89-1.54,12.55-15.42,1.89,1.54-7.92,9.73h.01Z"/><path class="cls-1" d="M160.97,33.77c1.03,1.09,2.17,2.45,3.27,4.03,1.99,2.88,2.74,5.39,2.42,7.62-.31,2.26-1.55,4.31-4.05,6.04-2.53,1.75-5.14,2.41-7.58,1.95-2.45-.45-4.9-2.3-6.98-5.31-.99-1.43-1.75-2.67-2.33-3.76l15.26-10.57h0Zm-12.33,11.51c.26,.57,.75,1.32,1.29,2.1,2.97,4.28,6.97,4.95,11.16,2.04,3.67-2.51,4.56-6.19,1.63-10.43-.72-1.04-1.35-1.75-1.83-2.2l-12.24,8.48h0Z"/><path class="cls-1" d="M161.63,58.09c-3.06,1.33-3.51,3.82-2.57,6.09,.67,1.63,1.37,2.49,2.08,3.2l-1.47,1.06c-.69-.65-1.68-1.85-2.5-3.84-1.6-3.85-.02-7.21,3.76-8.77s7.67-.57,9.18,3.08c1.69,4.09-1.45,6.66-3.75,7.61-.47,.19-.85,.29-1.09,.36l-3.64-8.79h0Zm4.39,6c1.46-.57,3.45-2.13,2.39-4.69-.95-2.3-3.49-2.43-5.14-1.96l2.75,6.65Z"/><path class="cls-1" d="M173.47,69.65l-6.88,4.21c-1.11,.7-2.13,1.29-3.16,1.8l.02,.08c1.16,.06,2.34,.21,3.64,.39l8,.96,.54,2.52-14.37-2.34-.5-2.3,12.16-7.9,.56,2.57h0Z"/><path class="cls-1" d="M168.78,84.89c-3.33,.18-4.62,2.36-4.52,4.83,.07,1.76,.42,2.81,.84,3.72l-1.75,.49c-.42-.85-.93-2.32-1.01-4.47-.16-4.17,2.49-6.76,6.57-6.92s7.4,2.13,7.55,6.07c.17,4.42-3.68,5.75-6.17,5.84-.5,.02-.9-.02-1.15-.04l-.36-9.51h0Zm2.04,7.14c1.57-.03,3.98-.8,3.87-3.57-.1-2.49-2.43-3.5-4.15-3.62l.27,7.19h0Z"/><path class="cls-1" d="M182.23,99.03l-.23,2.45-19.79-1.86,.23-2.45,19.79,1.86h0Z"/><path class="cls-1" d="M165.78,116.64c-4.87-1.17-6.18-5.06-5.42-8.24,.86-3.57,4.13-5.69,8.3-4.69,4.41,1.06,6.3,4.57,5.42,8.21-.91,3.78-4.28,5.68-8.3,4.71h0Zm2.38-10.48c-2.89-.69-5.46,.44-6.03,2.78-.55,2.29,1.19,4.52,4.16,5.23,2.23,.54,5.33,.1,6.01-2.73s-1.64-4.68-4.14-5.29h0Z"/><path class="cls-1" d="M166.54,120.99c1.57,.74,2.86,1.29,4.05,1.79l-.94,2-2.15-.89-.02,.05c1.06,1.62,1.27,3.48,.33,5.48-1.4,2.96-4.96,4.01-8.68,2.25-4.41-2.08-5.32-5.79-3.96-8.68,.76-1.62,2.14-2.71,3.71-2.87l.02-.05-6.66-3.14,1.04-2.2,13.27,6.26h-.01Zm-4.31,.66c-.33-.16-.66-.25-.96-.33-1.74-.32-3.43,.52-4.19,2.11-1.11,2.36,.17,4.63,2.98,5.96,2.46,1.16,5.17,.86,6.28-1.5,.72-1.52,.3-3.45-1.17-4.67-.24-.21-.54-.44-.84-.58l-2.1-.99h0Z"/><path class="cls-1" d="M155.77,135.38c-2.72-1.93-5.08-1.03-6.54,.95-1.05,1.42-1.43,2.46-1.66,3.44l-1.67-.71c.2-.93,.72-2.39,2-4.13,2.48-3.36,6.16-3.74,9.45-1.31,3.29,2.43,4.45,6.27,2.11,9.45-2.63,3.56-6.46,2.2-8.46,.72-.41-.3-.69-.58-.88-.75l5.65-7.66h0Zm-2.87,6.86c1.25,.95,3.6,1.86,5.25-.37,1.48-2.01,.28-4.25-.98-5.42l-4.27,5.79Z"/><path class="cls-1" d="M149.83,147.59c1.13,1.13,2.12,2.08,3.07,2.91l-1.52,1.53-1.94-1.82-.08,.08c.85,1.72,.62,3.58-.55,4.75-.2,.2-.36,.32-.55,.44l-1.64-1.64c.22-.14,.42-.3,.65-.54,1.23-1.23,1.17-3.03,.1-4.58-.2-.28-.44-.59-.73-.89l-5.11-5.11,1.72-1.72,6.6,6.59h-.02Z"/><path class="cls-1" d="M137.54,155.85c.95,1.35,.57,3.17-.77,4.08s-3.15,.59-4.07-.75c-.93-1.36-.59-3.15,.77-4.08,1.34-.92,3.14-.62,4.07,.75Z"/><path class="cls-1" d="M108.52,162.98c.89-.75,2.69-2.1,5.08-2.98,2.68-.99,5.14-1.12,7.48-.1,2.07,.91,3.88,2.93,4.9,5.68,1.92,5.29-.28,10.49-6.22,12.68-2.05,.76-3.82,.9-4.71,.81l-.14-2.07c1.1,.07,2.41-.02,4.2-.68,4.31-1.59,6.13-5.31,4.5-9.75-1.66-4.49-5.34-6.15-9.47-4.63-1.5,.55-2.44,1.14-2.87,1.6l1.95,5.28,3.6-1.33,.68,1.84-5.83,2.15-3.14-8.51h0Z"/><path class="cls-1" d="M107.01,171.69c.28,1.57,.55,2.92,.85,4.14l-2.12,.38-.55-2.61-.11,.02c-.29,1.9-1.55,3.29-3.18,3.58-.28,.05-.47,.06-.7,.04l-.41-2.29c.26,0,.51,0,.84-.06,1.71-.3,2.69-1.82,2.7-3.69,0-.34-.02-.74-.09-1.15l-1.26-7.11,2.4-.43,1.63,9.18h0Z"/><path class="cls-1" d="M89.61,164.12l.25,1.7h.08c.72-1.09,2.15-2.09,4.08-2.15,2.74-.09,4.2,1.8,4.26,3.76,.1,3.27-2.75,5.16-7.99,5.29v.28c.04,1.12,.41,3.12,3.18,3.04,1.26-.04,2.56-.47,3.5-1.12l.61,1.61c-1.1,.76-2.71,1.29-4.41,1.34-4.14,.13-5.24-2.67-5.32-5.38l-.16-5.07c-.04-1.18-.13-2.32-.33-3.24l2.24-.07h0Zm.58,6.91c2.69-.03,5.72-.6,5.64-3.23-.05-1.59-1.14-2.32-2.4-2.28-1.76,.05-2.85,1.21-3.2,2.37-.08,.25-.12,.54-.12,.79l.07,2.35h.01Z"/><path class="cls-1" d="M83.05,173.11c-.27,1.71-.44,3.11-.59,4.39l-2.18-.35,.26-2.31h-.06c-1.26,1.46-2.99,2.18-5.17,1.83-3.23-.52-5.23-3.64-4.58-7.71,.77-4.81,4.08-6.72,7.23-6.22,1.77,.28,3.19,1.3,3.78,2.76h.06l1.16-7.26,2.41,.38-2.31,14.49h-.01Zm-1.84-3.95c.06-.36,.05-.7,.05-1.01-.17-1.76-1.45-3.15-3.2-3.43-2.57-.41-4.4,1.45-4.89,4.52-.43,2.68,.62,5.2,3.19,5.61,1.66,.26,3.4-.68,4.16-2.43,.13-.29,.27-.64,.32-.97l.37-2.29h0Z"/><path class="cls-1" d="M62.65,179.97l-2.3-.88,3-7.9-.05-.02c-.61,.51-1.41,.87-2.27,1-.83,.13-1.74,.09-2.6-.24-1.7-.65-4.02-2.73-2.36-7.1l2.87-7.54,2.3,.88-2.77,7.27c-.78,2.04-.67,4.06,1.5,4.88,1.49,.57,3.07-.03,3.96-1.13,.25-.26,.41-.59,.57-1.04l2.9-7.64,2.3,.88-7.06,18.58h0Z"/><path class="cls-1" d="M45.18,169.41c.38-.75,1.25-1.04,2.11-.56,.76,.42,.97,1.31,.56,2.04-.42,.76-1.31,1.03-2.09,.6-.81-.45-1-1.32-.57-2.08h-.01Zm10.84-13.84l-6.59,11.85-2.15-1.2,6.59-11.85,2.15,1.2Z"/><path class="cls-1" d="M42.71,147.35c.72,.11,2.14,.59,3.61,1.66,3.3,2.41,3.82,6.22,1.37,9.56-2.46,3.37-6.55,4.13-10.12,1.52-1.18-.86-2-1.91-2.35-2.58l1.57-1.21c.28,.62,.84,1.41,1.93,2.2,2.51,1.83,5.22,.97,6.89-1.31,1.85-2.53,1.36-5.28-.81-6.87-1.13-.83-2.09-1.08-2.84-1.24l.75-1.74h0Z"/><path class="cls-1" d="M22.63,153.21c-1.09-1.03-2.31-2.32-3.49-3.84-2.15-2.76-3.04-5.22-2.84-7.47,.18-2.27,1.3-4.39,3.71-6.26,2.43-1.89,5-2.69,7.45-2.37,2.48,.31,5.02,2.02,7.27,4.91,1.07,1.37,1.9,2.57,2.54,3.63l-14.64,11.41h0Zm11.66-12.19c-.29-.55-.82-1.28-1.4-2.03-3.2-4.11-7.24-4.55-11.25-1.41-3.53,2.71-4.21,6.44-1.04,10.5,.77,.99,1.45,1.67,1.95,2.1l11.75-9.16h0Z"/><path class="cls-1" d="M20.61,128.95c2.98-1.5,3.29-4.01,2.22-6.23-.77-1.59-1.5-2.41-2.26-3.08l1.41-1.14c.73,.61,1.78,1.75,2.71,3.7,1.81,3.76,.42,7.19-3.26,8.97s-7.63,1-9.34-2.56c-1.92-3.99,1.08-6.73,3.32-7.81,.45-.22,.83-.34,1.07-.42l4.13,8.58h0Zm-4.72-5.75c-1.42,.65-3.33,2.32-2.12,4.81,1.08,2.25,3.62,2.23,5.25,1.67l-3.12-6.48h0Z"/><path class="cls-1" d="M19.19,116.36c.25-.83,.37-2.21,.03-3.39-.5-1.72-1.6-2.27-2.67-1.96-1.13,.33-1.55,1.18-1.68,3.12-.15,2.58-1.12,4.06-2.67,4.52-2.1,.61-4.31-.58-5.13-3.37-.39-1.32-.35-2.58-.13-3.43l1.89,.09c-.17,.6-.33,1.67,.03,2.88,.41,1.4,1.44,1.94,2.41,1.66,1.07-.31,1.33-1.24,1.48-3.12,.2-2.51,.99-4,2.92-4.56,2.28-.67,4.42,.63,5.32,3.72,.42,1.42,.45,2.84,.18,3.91l-1.97-.06h-.01Z"/><path class="cls-1" d="M1.29,105.33c.82-.17,1.59,.32,1.76,1.29,.15,.86-.41,1.58-1.24,1.72-.86,.15-1.63-.38-1.78-1.26-.16-.91,.41-1.6,1.26-1.75Zm17.58-.23l-13.36,2.29-.42-2.43,13.36-2.29,.42,2.43Z"/><path class="cls-1" d="M3.94,87.99c.98,.03,2.07,.06,3.73,.01l7.86-.21c3.11-.08,5.03,.48,6.24,1.77,1.27,1.28,1.71,3.17,1.75,4.88,.04,1.62-.3,3.42-1,4.54l-1.89-.57c.54-.91,1-2.32,.96-4-.07-2.52-1.43-4.33-4.85-4.24l-1.51,.04v.06c1.28,.72,2.33,2.15,2.38,4.25,.09,3.36-2.7,5.84-6.45,5.94-4.59,.12-7.27-2.8-7.35-5.91-.06-2.35,1.13-3.67,2.24-4.29v-.06l-2.05-.06-.06-2.16h0Zm5.41,2.41c-.42,.01-.78,.05-1.12,.17-1.42,.49-2.56,1.72-2.51,3.51,.06,2.35,2.09,3.98,5.23,3.89,2.66-.07,4.83-1.47,4.76-4.13-.04-1.51-1.03-2.86-2.61-3.35-.42-.13-.9-.17-1.32-.16l-2.44,.06h0Z"/><path class="cls-1" d="M7.97,83c-1.38-.24-2.52-.41-3.63-.52l.37-2.15,2.23,.25v-.06c-1.14-.88-2.12-2.64-1.73-4.85,.32-1.85,1.92-4.53,6.5-3.73l7.97,1.38-.42,2.43-7.7-1.34c-2.15-.37-4.08,.12-4.48,2.4-.28,1.6,.64,3.04,1.92,3.69,.28,.16,.69,.29,1.1,.36l8.03,1.39-.42,2.43-9.74-1.69h0Z"/><path class="cls-1" d="M15.17,66.79c3.13,1.14,5.17-.36,6.05-2.66,.63-1.65,.72-2.75,.69-3.75l1.8,.24c.06,.95-.06,2.5-.82,4.51-1.49,3.9-4.94,5.25-8.76,3.79s-5.97-4.86-4.56-8.55c1.58-4.13,5.63-3.84,7.96-2.95,.47,.18,.82,.37,1.04,.49l-3.4,8.89h0Zm.93-7.39c-1.45-.59-3.97-.83-4.96,1.76-.89,2.33,.87,4.17,2.39,4.96,0,0,2.57-6.72,2.57-6.72Z"/><path class="cls-1" d="M17.64,53.45c-1.39-.79-2.6-1.44-3.73-1.99l1.06-1.88,2.35,1.24,.06-.1c-1.28-1.43-1.55-3.29-.73-4.73,.14-.24,.26-.4,.42-.57l2.02,1.15c-.17,.19-.32,.4-.49,.69-.86,1.51-.32,3.23,1.12,4.43,.26,.21,.58,.46,.94,.66l6.28,3.56-1.2,2.12-8.11-4.6v.02Z"/><path class="cls-1" d="M27.31,42.22c-1.28-1.05-1.39-2.9-.34-4.14,1.05-1.24,2.88-1.41,4.12-.36,1.26,1.07,1.41,2.88,.34,4.14-1.05,1.24-2.86,1.43-4.12,.36Z"/></svg>